<svg xmlns="http://www.w3.org/2000/svg" width="786" height="490" viewBox="0 0 786 490"><defs><style type="text/css"/></defs><g transform="translate(107.55242625352489 724.5106722795529) scale(1)"><g class="relationship"><g transform="translate(623.6087170988861 -670.5106722795529) rotate(180)" stroke-width="5" stroke="#000000"><path d="M 59 0 L 593.2989927346628 0"/><polygon points="-24.8621506177483,0 -27.62461179749811,9.20820393249937 0,0 -27.62461179749811,-9.20820393249937" fill="#000000" transform="translate(618.161143352411 0) rotate(0)" stroke="none"/></g><g transform="translate(297.45922073155475 -670.5106722795529) rotate(360) translate(0 -13)"><g transform="translate(0 0)"><g transform="translate(-33 0)" fill="#ffffff" stroke="#000000" stroke-width="0"><rect x="0" y="0" width="66" height="26" rx="5" ry="5" stroke="none"/><text xml:space="preserve" x="5" y="17.578125" stroke="none" text-anchor="left" font-family="sans-serif" font-size="16" font-weight="normal" fill="#000000">PAID_TO</text></g></g></g></g><g class="relationship"><g transform="translate(246.485997395601 -481.78746437785685) rotate(-26.584719296167027)" stroke-width="5" stroke="#000000"><path d="M 59 0 L 337.84627343506736 0"/><polygon points="-24.8621506177483,0 -27.62461179749811,9.20820393249937 0,0 -27.62461179749811,-9.20820393249937" fill="#000000" transform="translate(362.70842405281564 0) rotate(0)" stroke="none"/></g><g transform="translate(423.93057450843867 -570.5859060199897) rotate(-26.584719296167027) translate(0 -13)"><g transform="translate(0 0)"><g transform="translate(-25 0)" fill="#ffffff" stroke="#000000" stroke-width="0"><rect x="0" y="0" width="50" height="26" rx="5" ry="5" stroke="none"/><text xml:space="preserve" x="5" y="17.578125" stroke="none" text-anchor="left" font-family="sans-serif" font-size="16" font-weight="normal" fill="#000000">FUNDS</text></g></g></g></g><g class="relationship"><g transform="translate(-53.552426253524885 -481.78746437785685) rotate(0)" stroke-width="5" stroke="#000000"><path d="M 59 0 L 216.17627303137758 0"/><polygon points="-24.8621506177483,0 -27.62461179749811,9.20820393249937 0,0 -27.62461179749811,-9.20820393249937" fill="#000000" transform="translate(241.0384236491259 0) rotate(0)" stroke="none"/></g><g transform="translate(84.03571026216392 -481.78746437785685) rotate(0) translate(0 -13)"><g transform="translate(0 0)"><g transform="translate(-37 0)" fill="#ffffff" stroke="#000000" stroke-width="0"><rect x="0" y="0" width="74" height="26" rx="5" ry="5" stroke="none"/><text xml:space="preserve" x="5" y="17.578125" stroke="none" text-anchor="left" font-family="sans-serif" font-size="16" font-weight="normal" fill="#000000">HAS_CARD</text></g></g></g></g><g class="relationship"><g transform="translate(-53.552426253524885 -481.78746437785685) rotate(32.74645912157445)" stroke-width="5" stroke="#000000"><path d="M 59 0 L 272.87100113587996 0"/><polygon points="-24.8621506177483,0 -27.62461179749811,9.20820393249937 0,0 -27.62461179749811,-9.20820393249937" fill="#000000" transform="translate(297.73315175362825 0) rotate(0)" stroke="none"/></g><g transform="translate(86.01135068475617 -392.0292195451144) rotate(32.74645912157445) translate(0 -13)"><g transform="translate(0 0)"><g transform="translate(-49 0)" fill="#ffffff" stroke="#000000" stroke-width="0"><rect x="0" y="0" width="98" height="26" rx="5" ry="5" stroke="none"/><text xml:space="preserve" x="5" y="17.578125" stroke="none" text-anchor="left" font-family="sans-serif" font-size="16" font-weight="normal" fill="#000000">HAS_ACCOUNT</text></g></g></g></g><g class="relationship"><g transform="translate(246.485997395601 -288.8224781906606) rotate(0)" stroke-width="5" stroke="#000000"><path d="M 58.695178092152055 -5.989663490593891 L 95.96898050729243 -9.793341079425122 A 40 40 0 0 1 100.02976931447472 -10 L 188.56135985164258 -10 L 277.09295038881044 -10 A 40 40 0 0 1 281.1537391959928 -9.79334107942512 L 293.69384062363065 -8.51366206436971 L 293.69384062363065 -8.51366206436971"/><polygon points="-24.8621506177483,0 -27.62461179749811,9.20820393249937 0,0 -27.62461179749811,-9.20820393249937" fill="#000000" transform="translate(377.12271970328516 0) rotate(5.826689442008371) translate(-59 0)" stroke="none"/></g><g transform="translate(435.04735724724355 -298.8224781906606) rotate(0) translate(0 -13)"><g transform="translate(0 0)"><g transform="translate(-33 0)" fill="#ffffff" stroke="#000000" stroke-width="0"><rect x="0" y="0" width="66" height="26" rx="5" ry="5" stroke="none"/><text xml:space="preserve" x="5" y="17.578125" stroke="none" text-anchor="left" font-family="sans-serif" font-size="16" font-weight="normal" fill="#000000">SENT_TO</text></g></g></g></g><g class="relationship"><g transform="translate(623.6087170988861 -288.8224781906606) rotate(180)" stroke-width="5" stroke="#000000"><path d="M 58.695178092152055 -5.989663490593891 L 95.96898050729243 -9.793341079425122 A 40 40 0 0 1 100.02976931447472 -10 L 188.56135985164258 -10 L 277.09295038881044 -10 A 40 40 0 0 1 281.1537391959928 -9.79334107942512 L 293.69384062363065 -8.51366206436971 L 293.69384062363065 -8.51366206436971"/><polygon points="-24.8621506177483,0 -27.62461179749811,9.20820393249937 0,0 -27.62461179749811,-9.20820393249937" fill="#000000" transform="translate(377.12271970328516 0) rotate(5.826689442008371) translate(-59 0)" stroke="none"/></g><g transform="translate(435.04735724724355 -278.8224781906606) rotate(360) translate(0 -13)"><g transform="translate(0 0)"><g transform="translate(-49 0)" fill="#ffffff" stroke="#000000" stroke-width="0"><rect x="0" y="0" width="98" height="26" rx="5" ry="5" stroke="none"/><text xml:space="preserve" x="5" y="17.578125" stroke="none" text-anchor="left" font-family="sans-serif" font-size="16" font-weight="normal" fill="#000000">RECEIVED_BY</text></g></g></g></g><g class="node"><g fill="#ffffff" stroke="#000000" stroke-width="4"><circle cx="246.485997395601" cy="-481.78746437785685" r="52"/></g><g transform="translate(246.485997395601 -481.78746437785685)"><g transform="scale(0.7695314804687501) translate(0 0)"><g transform="translate(0 0)"><g font-family="sans-serif" font-size="50" font-weight="normal" fill="#000000" text-anchor="middle"><text xml:space="preserve" x="0" y="14.306640625" stroke="none">Card</text></g></g></g></g></g><g class="node"><g fill="#ffffff" stroke="#000000" stroke-width="4"><circle cx="623.6087170988861" cy="-288.8224781906606" r="52"/></g><g transform="translate(623.6087170988861 -288.8224781906606)"><g transform="scale(0.4296880703125) translate(0 0)"><g transform="translate(0 0)"><g font-family="sans-serif" font-size="50" font-weight="normal" fill="#000000" text-anchor="middle"><text xml:space="preserve" x="0" y="14.306640625" stroke="none">Transfer</text></g></g></g></g></g><g class="node"><g fill="#ffffff" stroke="#000000" stroke-width="4"><circle cx="-53.552426253524885" cy="-670.5106722795529" r="52"/></g><g transform="translate(-53.552426253524885 -670.5106722795529)"><g transform="scale(0.4296880703125) translate(0 0)"><g transform="translate(0 0)"><g font-family="sans-serif" font-size="50" font-weight="normal" fill="#000000" text-anchor="middle"><text xml:space="preserve" x="0" y="14.306640625" stroke="none">Merchant</text><text xml:space="preserve" x="0" y="74.306640625" stroke="none" text-anchor="middle"></text></g></g></g></g></g><g class="node"><g fill="#ffffff" stroke="#000000" stroke-width="4"><circle cx="623.6087170988861" cy="-670.5106722795529" r="52"/></g><g transform="translate(623.6087170988861 -670.5106722795529)"><g transform="scale(0.4296880703125) translate(0 0)"><g transform="translate(0 0)"><g font-family="sans-serif" font-size="50" font-weight="normal" fill="#000000" text-anchor="middle"><text xml:space="preserve" x="0" y="14.306640625" stroke="none">Purchase</text></g></g></g></g></g><g class="node"><g fill="#ffffff" stroke="#000000" stroke-width="4"><circle cx="-53.552426253524885" cy="-481.78746437785685" r="52"/></g><g transform="translate(-53.552426253524885 -481.78746437785685)"><g transform="scale(0.4296880703125) translate(0 0)"><g transform="translate(0 0)"><g font-family="sans-serif" font-size="50" font-weight="normal" fill="#000000" text-anchor="middle"><text xml:space="preserve" x="0" y="14.306640625" stroke="none">Customer</text></g></g></g></g></g><g class="node"><g fill="#ffffff" stroke="#000000" stroke-width="4"><circle cx="246.485997395601" cy="-288.8224781906606" r="52"/></g><g transform="translate(246.485997395601 -288.8224781906606)"><g transform="scale(0.484375515625) translate(0 0)"><g transform="translate(0 0)"><g font-family="sans-serif" font-size="50" font-weight="normal" fill="#000000" text-anchor="middle"><text xml:space="preserve" x="0" y="14.306640625" stroke="none">Account</text></g></g></g></g></g></g></svg>